<svg width="45" height="41" viewBox="0 0 45 41" fill="none" xmlns="http://www.w3.org/2000/svg">
<path d="M16.89 30.6473C13.6338 30.6473 10.9846 32.9696 10.9846 35.8241C10.9846 38.6784 13.6338 41.0007 16.89 41.0007C20.1464 41.0007 22.7956 38.6784 22.7956 35.8241C22.7956 32.9696 20.1462 30.6473 16.89 30.6473ZM16.89 37.8947C15.5873 37.8947 14.5279 36.9661 14.5279 35.8241C14.5279 34.6821 15.5873 33.7535 16.89 33.7535C18.1922 33.7535 19.2523 34.6821 19.2523 35.8241C19.2523 36.9659 18.1929 37.8947 16.89 37.8947Z" fill="#B3B6C4"/>
<path d="M34.37 30.6473C31.1137 30.6473 28.4645 32.9696 28.4645 35.8241C28.4645 38.6784 31.1137 41.0007 34.37 41.0007C37.6262 41.0007 40.2754 38.6784 40.2754 35.8241C40.2754 32.9696 37.6262 30.6473 34.37 30.6473ZM34.37 37.8947C33.0673 37.8947 32.0079 36.9661 32.0079 35.8241C32.0079 34.6821 33.0673 33.7535 34.37 33.7535C35.6728 33.7535 36.7321 34.6821 36.7321 35.8241C36.7321 36.9659 35.6728 37.8947 34.37 37.8947Z" fill="#B3B6C4"/>
<path d="M44.6148 10.1117C44.2782 9.74103 43.7681 9.52524 43.2283 9.52524H12.207L10.5966 2.39073C10.4555 1.76589 9.89329 1.27981 9.1781 1.1649L2.09155 0.0260409C1.12724 -0.12979 0.205976 0.429872 0.0293943 1.27365C-0.147187 2.11742 0.489986 2.92653 1.45264 3.08132L7.35455 4.02967L12.5537 27.0653C12.7179 27.7926 13.446 28.317 14.2916 28.317H39.0946C39.9195 28.317 40.6347 27.8185 40.8207 27.1129L44.9545 11.4276C45.0761 10.9664 44.951 10.4818 44.6148 10.1117ZM37.6854 25.2111H15.7466L12.908 12.6318H41.0001L37.6854 25.2111Z" fill="#B3B6C4"/>
</svg>
