<svg width="45" height="41" viewBox="0 0 45 41" fill="none" xmlns="http://www.w3.org/2000/svg">
<path d="M37.8563 24.0192L35.7375 20.8075C35.2688 20.1071 34.8563 18.7575 34.8563 17.9375V14.7429C34.8563 8.54166 29.325 3.50208 22.5375 3.50208C15.7313 3.51916 10.2 8.54166 10.2 14.7429V17.9204C10.2 18.7404 9.78751 20.09 9.33751 20.7904L7.21876 24.0021C6.41251 25.2492 6.22501 26.6671 6.73126 27.8971C7.23751 29.1442 8.38126 30.135 9.88126 30.5792C11.9063 31.1942 13.95 31.6383 16.0313 31.9629C16.2375 31.9971 16.4438 32.0142 16.65 32.0483C16.9125 32.0825 17.1938 32.1167 17.475 32.1508C17.9625 32.2192 18.45 32.2704 18.9563 32.3046C20.1375 32.4071 21.3375 32.4583 22.5375 32.4583C23.7188 32.4583 24.9 32.4071 26.0625 32.3046C26.4938 32.2704 26.925 32.2362 27.3375 32.185C27.675 32.1508 28.0125 32.1167 28.35 32.0654C28.5563 32.0483 28.7625 32.0142 28.9688 31.98C31.0688 31.6725 33.15 31.1942 35.175 30.5792C36.6188 30.135 37.725 29.1442 38.25 27.88C38.775 26.5987 38.625 25.1979 37.8563 24.0192ZM23.9063 17.0833C23.9063 17.8008 23.2688 18.3817 22.4813 18.3817C21.6938 18.3817 21.0563 17.8008 21.0563 17.0833V11.7875C21.0563 11.07 21.6938 10.4892 22.4813 10.4892C23.2688 10.4892 23.9063 11.07 23.9063 11.7875V17.0833Z" fill="#B3B6C4"/>
<path d="M27.8063 34.1838C27.0188 36.1654 24.9375 37.5834 22.5 37.5834C21.0188 37.5834 19.5563 37.0367 18.525 36.0629C17.925 35.5504 17.475 34.8671 17.2125 34.1667C17.4563 34.2009 17.7 34.2179 17.9625 34.2521C18.3938 34.3034 18.8438 34.3546 19.2938 34.3888C20.3625 34.4742 21.45 34.5254 22.5375 34.5254C23.6063 34.5254 24.675 34.4742 25.725 34.3888C26.1188 34.3546 26.5125 34.3375 26.8875 34.2863C27.1875 34.2521 27.4875 34.2179 27.8063 34.1838Z" fill="#B3B6C4"/>
</svg>
