<svg width="52" height="51" viewBox="0 0 52 51" fill="none" xmlns="http://www.w3.org/2000/svg">
<g clip-path="url(#clip0_91_76)">
<path opacity="0.974" fill-rule="evenodd" clip-rule="evenodd" d="M3.12659 -0.161377C5.97892 -0.161377 8.83122 -0.161377 11.6836 -0.161377C11.3187 0.0936134 10.8799 0.255006 10.3671 0.3228C10.5865 0.430394 10.8059 0.537991 11.0253 0.645585C10.3671 1.18356 9.70887 1.72153 9.05064 2.25951C9.16033 2.3671 9.27006 2.4747 9.37975 2.58229C8.37783 2.69813 8.26814 2.91332 9.05064 3.22786C8.72153 3.33545 8.39241 3.44306 8.0633 3.55065C8.17299 3.65823 8.28272 3.76585 8.39241 3.87343C7.6469 4.6486 6.87898 5.40175 6.08861 6.13293C6.19831 6.24051 6.30803 6.34813 6.41773 6.45571C5.97892 6.5633 5.54008 6.67091 5.10127 6.7785C5.32069 6.88608 5.54008 6.9937 5.7595 7.10128C5.10127 7.63927 4.44304 8.17722 3.78482 8.71521C4.00424 8.82279 4.22362 8.93041 4.44304 9.03799C4.00424 9.14557 3.5654 9.25319 3.12659 9.36077C3.34601 9.46836 3.5654 9.57598 3.78482 9.68356C3.12659 10.2215 2.46836 10.7595 1.81013 11.2975C2.02954 11.4051 2.24895 11.5127 2.46836 11.6203C2.02954 11.7279 1.59072 11.8355 1.1519 11.9431C1.37132 12.0506 1.59072 12.1583 1.81013 12.2658C1.18626 12.8279 0.52803 13.312 -0.164551 13.7184C-0.164551 10.2753 -0.164551 6.8323 -0.164551 3.38926C0.586569 1.89932 1.68362 0.715771 3.12659 -0.161377Z" fill="#0EACD1"/>
<path opacity="0.986" fill-rule="evenodd" clip-rule="evenodd" d="M11.6836 -0.161377C13.6582 -0.161377 15.6329 -0.161377 17.6076 -0.161377C16.9267 0.551539 16.0491 1.3585 14.9747 2.25951C15.1941 2.3671 15.4135 2.4747 15.6329 2.58229C15.1941 2.68989 14.7553 2.79748 14.3165 2.90508C14.5359 3.01267 14.7553 3.12027 14.9747 3.22786C14.3165 3.76585 13.6582 4.3038 13 4.84179C13.1097 4.94937 13.2194 5.05699 13.3291 5.16457C12.3272 5.28042 12.2175 5.49559 13 5.81014C12.3418 6.34813 11.6836 6.88608 11.0253 7.42407C11.135 7.53165 11.2447 7.63927 11.3544 7.74685C11.0253 7.85443 10.6962 7.96205 10.3671 8.06964C10.7424 8.30888 10.7424 8.57786 10.3671 8.8766C9.97245 9.49938 9.31423 10.0912 8.39241 10.6519C8.39241 10.9747 8.39241 11.2975 8.39241 11.6203C7.65023 12.1313 6.88231 12.8845 6.08861 13.8798C6.19831 13.9873 6.30803 14.095 6.41773 14.2025C5.97892 14.3101 5.54008 14.4177 5.10127 14.5253C5.32069 14.6329 5.54008 14.7405 5.7595 14.8481C5.10127 15.3861 4.44304 15.9241 3.78482 16.462C4.00424 16.5696 4.22362 16.6772 4.44304 16.7848C4.00424 16.8924 3.5654 17 3.12659 17.1076C3.34601 17.2152 3.5654 17.3228 3.78482 17.4304C3.12659 17.9684 2.46836 18.5063 1.81013 19.0443C2.02954 19.1519 2.24895 19.2595 2.46836 19.3671C2.02954 19.4747 1.59072 19.5823 1.1519 19.6899C1.52728 19.9291 1.52728 20.1981 1.1519 20.4969C0.793694 20.9599 0.354877 21.2826 -0.164551 21.4652C-0.164551 18.8829 -0.164551 16.3006 -0.164551 13.7184C0.52803 13.312 1.18626 12.8279 1.81013 12.2658C1.59072 12.1583 1.37132 12.0506 1.1519 11.9431C1.59072 11.8355 2.02954 11.7279 2.46836 11.6203C2.24895 11.5127 2.02954 11.4051 1.81013 11.2975C2.46836 10.7595 3.12659 10.2215 3.78482 9.68356C3.5654 9.57598 3.34601 9.46836 3.12659 9.36077C3.5654 9.25319 4.00424 9.14557 4.44304 9.03799C4.22362 8.93041 4.00424 8.82279 3.78482 8.71521C4.44304 8.17722 5.10127 7.63927 5.7595 7.10128C5.54008 6.9937 5.32069 6.88608 5.10127 6.7785C5.54008 6.67091 5.97892 6.5633 6.41773 6.45571C6.30803 6.34813 6.19831 6.24051 6.08861 6.13293C6.87898 5.40175 7.6469 4.6486 8.39241 3.87343C8.28272 3.76585 8.17299 3.65823 8.0633 3.55065C8.39241 3.44306 8.72153 3.33545 9.05064 3.22786C8.26814 2.91332 8.37783 2.69813 9.37975 2.58229C9.27006 2.4747 9.16033 2.3671 9.05064 2.25951C9.70887 1.72153 10.3671 1.18356 11.0253 0.645585C10.8059 0.537991 10.5865 0.430394 10.3671 0.3228C10.8799 0.255006 11.3187 0.0936134 11.6836 -0.161377Z" fill="#0AA4CE"/>
<path opacity="0.99" fill-rule="evenodd" clip-rule="evenodd" d="M17.6076 -0.161377C19.5823 -0.161377 21.557 -0.161377 23.5317 -0.161377C23.1565 0.258703 22.7177 0.635285 22.2152 0.96837C22.4346 1.07596 22.654 1.18356 22.8734 1.29115C22.4346 1.39875 21.9958 1.50635 21.557 1.61394C21.7764 1.72153 21.9958 1.82913 22.2152 1.93672C21.557 2.4747 20.8987 3.01267 20.2405 3.55065C20.4599 3.65823 20.6793 3.76585 20.8987 3.87343C20.4599 3.98102 20.0211 4.08863 19.5823 4.19622C19.9576 4.43547 19.9576 4.70444 19.5823 5.00318C18.6231 6.00733 17.7455 6.81429 16.9494 7.42407C17.1688 7.53165 17.3882 7.63927 17.6076 7.74685C16.73 8.5 15.8523 9.25319 14.9747 10.0063C15.1941 10.1139 15.4135 10.2215 15.6329 10.3291C15.1941 10.4367 14.7553 10.5443 14.3165 10.6519C14.5359 10.7595 14.7553 10.8671 14.9747 10.9747C14.3165 11.5127 13.6582 12.0506 13 12.5886C13.2194 12.6962 13.4388 12.8038 13.6582 12.9114C13.2194 13.019 12.7806 13.1266 12.3418 13.2342C12.5612 13.3418 12.7806 13.4494 13 13.557C12.3418 14.095 11.6836 14.6329 11.0253 15.1709C11.2447 15.2785 11.4641 15.3861 11.6836 15.4937C11.2447 15.6013 10.8059 15.7089 10.3671 15.8165C10.5865 15.9241 10.8059 16.0317 11.0253 16.1393C10.1477 16.8924 9.27006 17.6456 8.39241 18.3988C9.17491 18.7133 9.06522 18.9285 8.0633 19.0443C8.17299 19.1519 8.28272 19.2595 8.39241 19.3671C7.51476 20.0127 6.74684 20.7658 6.08861 21.6266C6.19831 21.7342 6.30803 21.8418 6.41773 21.9494C5.97892 22.057 5.54008 22.1646 5.10127 22.2722C5.32069 22.3798 5.54008 22.4874 5.7595 22.595C5.10127 23.1329 4.44304 23.6709 3.78482 24.2089C4.00424 24.3165 4.22362 24.4241 4.44304 24.5317C4.00424 24.6392 3.5654 24.7469 3.12659 24.8544C3.34601 24.962 3.5654 25.0696 3.78482 25.1772C3.12659 25.7152 2.46836 26.2532 1.81013 26.7912C2.02954 26.8987 2.24895 27.0064 2.46836 27.1139C2.02954 27.2215 1.59072 27.3291 1.1519 27.4367C1.37132 27.5443 1.59072 27.6519 1.81013 27.7595C1.18626 28.3215 0.52803 28.8057 -0.164551 29.212C-0.164551 26.6298 -0.164551 24.0475 -0.164551 21.4652C0.354877 21.2826 0.793694 20.9599 1.1519 20.4969C1.52728 20.1981 1.52728 19.9291 1.1519 19.6899C1.59072 19.5823 2.02954 19.4747 2.46836 19.3671C2.24895 19.2595 2.02954 19.1519 1.81013 19.0443C2.46836 18.5063 3.12659 17.9684 3.78482 17.4304C3.5654 17.3228 3.34601 17.2152 3.12659 17.1076C3.5654 17 4.00424 16.8924 4.44304 16.7848C4.22362 16.6772 4.00424 16.5696 3.78482 16.462C4.44304 15.9241 5.10127 15.3861 5.7595 14.8481C5.54008 14.7405 5.32069 14.6329 5.10127 14.5253C5.54008 14.4177 5.97892 14.3101 6.41773 14.2025C6.30803 14.095 6.19831 13.9873 6.08861 13.8798C6.88231 12.8845 7.65023 12.1313 8.39241 11.6203C8.39241 11.2975 8.39241 10.9747 8.39241 10.6519C9.31423 10.0912 9.97245 9.49938 10.3671 8.8766C10.7424 8.57786 10.7424 8.30888 10.3671 8.06964C10.6962 7.96205 11.0253 7.85443 11.3544 7.74685C11.2447 7.63927 11.135 7.53165 11.0253 7.42407C11.6836 6.88608 12.3418 6.34813 13 5.81014C12.2175 5.49559 12.3272 5.28042 13.3291 5.16457C13.2194 5.05699 13.1097 4.94937 13 4.84179C13.6582 4.3038 14.3165 3.76585 14.9747 3.22786C14.7553 3.12027 14.5359 3.01267 14.3165 2.90508C14.7553 2.79748 15.1941 2.68989 15.6329 2.58229C15.4135 2.4747 15.1941 2.3671 14.9747 2.25951C16.0491 1.3585 16.9267 0.551539 17.6076 -0.161377Z" fill="#0A9FCC"/>
<path opacity="0.988" fill-rule="evenodd" clip-rule="evenodd" d="M23.5317 -0.161377C25.9451 -0.161377 28.3587 -0.161377 30.7722 -0.161377C29.9595 0.688699 29.0818 1.49566 28.1392 2.25951C28.3587 2.3671 28.5781 2.4747 28.7975 2.58229C28.3587 2.68989 27.9198 2.79748 27.481 2.90508C27.7004 3.01267 27.9198 3.12027 28.1392 3.22786C27.481 3.76585 26.8228 4.3038 26.1646 4.84179C26.384 4.94937 26.6034 5.05699 26.8228 5.16457C26.384 5.27216 25.9451 5.37977 25.5063 5.48736C25.7258 5.59494 25.9451 5.70256 26.1646 5.81014C25.5063 6.34813 24.8481 6.88608 24.1899 7.42407C24.4093 7.53165 24.6287 7.63927 24.8481 7.74685C24.4093 7.85443 23.9705 7.96205 23.5317 8.06964C23.7511 8.17722 23.9705 8.28484 24.1899 8.39242C23.3122 9.14557 22.4346 9.89876 21.557 10.6519C22.3395 10.9665 22.2298 11.1816 21.2279 11.2975C23.2528 11.7673 25.3372 11.9287 27.481 11.7817C29.346 11.7817 31.211 11.7817 33.076 11.7817C38.1223 11.7817 43.1689 11.7817 48.2152 11.7817C38.2559 12.0517 28.0532 12.2131 17.6076 12.2658C14.8843 13.1074 13.1839 14.8828 12.5063 17.5918C12.4526 27.7289 12.288 37.6277 12.0127 47.288C12.0127 41.9081 12.0127 36.5286 12.0127 31.1488C12.0674 28.5642 12.0126 25.982 11.8481 23.4019C11.6835 23.7785 11.4093 24.0475 11.0253 24.2089C11.135 24.3165 11.2447 24.4241 11.3544 24.5317C11.0424 24.6875 10.7133 24.7413 10.3671 24.6931C9.95366 26.1268 9.07601 27.2565 7.73418 28.0823C7.9536 28.1899 8.17299 28.2975 8.39241 28.4051C7.51476 29.1582 6.63715 29.9114 5.7595 30.6646C5.97892 30.7722 6.19831 30.8798 6.41773 30.9874C5.97892 31.0949 5.54008 31.2026 5.10127 31.3101C5.32069 31.4177 5.54008 31.5253 5.7595 31.6329C4.83768 32.1937 4.17946 32.7856 3.78482 33.4082C3.40946 33.7068 3.40946 33.976 3.78482 34.2152C3.34601 34.3227 2.90718 34.4305 2.46836 34.538C2.68777 34.6455 2.90718 34.7533 3.12659 34.8608C2.40383 35.4092 1.7456 36.0012 1.1519 36.6361C0.633995 36.1571 0.195176 35.619 -0.164551 35.0222C-0.164551 33.0855 -0.164551 31.1488 -0.164551 29.212C0.52803 28.8057 1.18626 28.3215 1.81013 27.7595C1.59072 27.6519 1.37132 27.5443 1.1519 27.4367C1.59072 27.3291 2.02954 27.2215 2.46836 27.1139C2.24895 27.0064 2.02954 26.8987 1.81013 26.7912C2.46836 26.2532 3.12659 25.7152 3.78482 25.1772C3.5654 25.0696 3.34601 24.962 3.12659 24.8544C3.5654 24.7469 4.00424 24.6392 4.44304 24.5317C4.22362 24.4241 4.00424 24.3165 3.78482 24.2089C4.44304 23.6709 5.10127 23.1329 5.7595 22.595C5.54008 22.4874 5.32069 22.3798 5.10127 22.2722C5.54008 22.1646 5.97892 22.057 6.41773 21.9494C6.30803 21.8418 6.19831 21.7342 6.08861 21.6266C6.74684 20.7658 7.51476 20.0127 8.39241 19.3671C8.28272 19.2595 8.17299 19.1519 8.0633 19.0443C9.06522 18.9285 9.17491 18.7133 8.39241 18.3988C9.27006 17.6456 10.1477 16.8924 11.0253 16.1393C10.8059 16.0317 10.5865 15.9241 10.3671 15.8165C10.8059 15.7089 11.2447 15.6013 11.6835 15.4937C11.4641 15.3861 11.2447 15.2785 11.0253 15.1709C11.6835 14.6329 12.3418 14.095 13 13.557C12.7806 13.4494 12.5612 13.3418 12.3418 13.2342C12.7806 13.1266 13.2194 13.019 13.6582 12.9114C13.4388 12.8038 13.2194 12.6962 13 12.5886C13.6582 12.0506 14.3165 11.5127 14.9747 10.9747C14.7553 10.8671 14.5359 10.7595 14.3165 10.6519C14.7553 10.5443 15.1941 10.4367 15.6329 10.3291C15.4135 10.2215 15.1941 10.1139 14.9747 10.0063C15.8523 9.25319 16.73 8.5 17.6076 7.74685C17.3882 7.63927 17.1688 7.53165 16.9494 7.42407C17.7455 6.81429 18.6231 6.00733 19.5823 5.00318C19.9576 4.70444 19.9576 4.43547 19.5823 4.19622C20.0211 4.08863 20.4599 3.98102 20.8987 3.87343C20.6793 3.76585 20.4599 3.65823 20.2405 3.55065C20.8987 3.01267 21.557 2.4747 22.2152 1.93672C21.9958 1.82913 21.7764 1.72153 21.557 1.61394C21.9958 1.50635 22.4346 1.39875 22.8734 1.29115C22.654 1.18356 22.4346 1.07596 22.2152 0.96837C22.7177 0.635285 23.1565 0.258703 23.5317 -0.161377Z" fill="#199ACA"/>
<path opacity="0.994" fill-rule="evenodd" clip-rule="evenodd" d="M30.7721 -0.161377C32.4177 -0.161377 34.0633 -0.161377 35.7089 -0.161377C35.9284 0.053813 36.1476 0.269003 36.3671 0.484193C35.8053 0.904952 35.2567 1.28153 34.7215 1.61394C34.7215 1.93672 34.7215 2.25951 34.7215 2.58229C33.7997 3.14305 33.1414 3.73483 32.7468 4.35761C32.3715 4.65635 32.3715 4.92532 32.7468 5.16457C32.4177 5.27216 32.0886 5.37977 31.7595 5.48736C31.8692 5.59494 31.9789 5.70256 32.0886 5.81014C31.4304 6.34813 30.7721 6.88608 30.1139 7.42407C30.8964 7.73862 30.7867 7.95379 29.7848 8.06964C29.8945 8.17722 30.0042 8.28484 30.1139 8.39242C29.4557 8.93041 28.7975 9.46836 28.1392 10.0063C28.3587 10.1139 28.578 10.2215 28.7975 10.3291C28.3587 10.4367 27.9198 10.5443 27.481 10.6519C27.7004 10.7595 27.9198 10.8671 28.1392 10.9747C27.7259 11.1093 27.5065 11.3782 27.481 11.7817C25.3372 11.9287 23.2528 11.7673 21.2278 11.2975C22.2298 11.1816 22.3395 10.9665 21.557 10.6519C22.4346 9.89876 23.3122 9.14557 24.1899 8.39242C23.9704 8.28484 23.7511 8.17722 23.5316 8.06964C23.9704 7.96205 24.4093 7.85443 24.8481 7.74685C24.6287 7.63927 24.4093 7.53165 24.1899 7.42407C24.8481 6.88608 25.5063 6.34813 26.1646 5.81014C25.9451 5.70256 25.7257 5.59494 25.5063 5.48736C25.9451 5.37977 26.384 5.27216 26.8228 5.16457C26.6034 5.05699 26.384 4.94937 26.1646 4.84179C26.8228 4.3038 27.481 3.76585 28.1392 3.22786C27.9198 3.12027 27.7004 3.01267 27.481 2.90508C27.9198 2.79748 28.3587 2.68989 28.7975 2.58229C28.578 2.4747 28.3587 2.3671 28.1392 2.25951C29.0818 1.49566 29.9595 0.688699 30.7721 -0.161377Z" fill="#0D92C7"/>
<path opacity="0.994" fill-rule="evenodd" clip-rule="evenodd" d="M36.3671 0.484192C37.6625 1.21554 38.7594 2.18389 39.6582 3.38926C38.7436 3.74974 38.634 4.1263 39.3291 4.519C38.4514 5.27216 37.574 6.02534 36.6962 6.7785C36.8058 6.88608 36.9157 6.9937 37.0253 7.10128C35.8017 8.30149 34.7044 9.37743 33.7342 10.3291C33.8846 10.4628 33.9945 10.6242 34.0633 10.8133C33.6453 11.0675 33.3162 11.3903 33.076 11.7817C31.211 11.7817 29.346 11.7817 27.481 11.7817C27.5065 11.3782 27.7259 11.1093 28.1392 10.9747C27.9198 10.8671 27.7004 10.7595 27.481 10.6519C27.9198 10.5443 28.3587 10.4367 28.7975 10.3291C28.5781 10.2215 28.3587 10.1139 28.1392 10.0063C28.7975 9.46836 29.4557 8.93041 30.1139 8.39242C30.0042 8.28484 29.8945 8.17722 29.7848 8.06963C30.7867 7.95379 30.8964 7.73862 30.1139 7.42407C30.7722 6.88608 31.4304 6.34813 32.0886 5.81014C31.9789 5.70256 31.8692 5.59494 31.7595 5.48736C32.0886 5.37977 32.4177 5.27216 32.7468 5.16457C32.3715 4.92532 32.3715 4.65635 32.7468 4.35761C33.1414 3.73483 33.7997 3.14305 34.7215 2.58229C34.7215 2.25951 34.7215 1.93672 34.7215 1.61394C35.2567 1.28153 35.8053 0.904952 36.3671 0.484192Z" fill="#0D8CC5"/>
<path opacity="0.993" fill-rule="evenodd" clip-rule="evenodd" d="M39.6582 3.38922C42.6203 6.07908 45.4727 8.87656 48.2152 11.7816C43.1689 11.7816 38.1223 11.7816 33.076 11.7816C33.3162 11.3903 33.6453 11.0675 34.0633 10.8133C33.9945 10.6241 33.8846 10.4627 33.7342 10.3291C34.7044 9.3774 35.8017 8.30146 37.0253 7.10125C36.9157 6.99366 36.8058 6.88605 36.6962 6.77846C37.574 6.02531 38.4514 5.27212 39.3291 4.51897C38.634 4.12627 38.7436 3.74971 39.6582 3.38922Z" fill="#0E85C2"/>
<path opacity="0.997" fill-rule="evenodd" clip-rule="evenodd" d="M50.1899 15.6551C49.0814 16.1447 48.0941 16.8441 47.2279 17.7532C47.4474 17.8608 47.6666 17.9684 47.8861 18.076C47.0083 18.8291 46.1309 19.5823 45.2532 20.3355C45.4727 20.443 45.6919 20.5507 45.9114 20.6582C45.4727 20.7658 45.0336 20.8734 44.5949 20.981C44.8145 21.0886 45.0336 21.1962 45.2532 21.3038C44.5949 21.8418 43.9367 22.3797 43.2785 22.9177C43.498 23.0253 43.7172 23.1329 43.9367 23.2405C43.498 23.3481 43.059 23.4557 42.6203 23.5633C42.8398 23.6709 43.059 23.7785 43.2785 23.8861C42.6203 24.4241 41.962 24.962 41.3038 25.5C41.5233 25.6076 41.7425 25.7152 41.962 25.8228C41.5233 25.9304 41.0843 26.038 40.6456 26.1456C40.8651 26.2532 41.0843 26.3608 41.3038 26.4684C40.7005 26.845 40.2069 27.3291 39.8228 27.9209C39.7659 29.7013 39.6013 31.4228 39.3291 33.0854C39.2742 27.0592 39.3291 21.0339 39.4937 15.0095C42.2651 14.6386 45.0626 14.5848 47.8861 14.8481C48.7717 14.8984 49.5395 15.1674 50.1899 15.6551Z" fill="#1E7DC0"/>
<path opacity="0.988" fill-rule="evenodd" clip-rule="evenodd" d="M50.1899 15.6551C50.8952 16.1815 51.4438 16.827 51.8354 17.5918C51.8354 18.6677 51.8354 19.7437 51.8354 20.8196C51.3645 21.0075 50.9258 21.2765 50.519 21.6266C50.6286 21.7342 50.7385 21.8418 50.8481 21.9494C49.9269 22.0911 49.5978 22.5215 49.8608 23.2405C49.5316 23.3481 49.2025 23.4557 48.8734 23.5633C48.983 23.6709 49.0929 23.7785 49.2025 23.8861C48.5443 24.4241 47.8861 24.962 47.2278 25.5C48.0105 25.8146 47.9005 26.0297 46.8987 26.1456C47.0083 26.2532 47.1182 26.3608 47.2278 26.4684C46.5696 27.0064 45.9114 27.5443 45.2532 28.0823C45.4727 28.1899 45.6919 28.2975 45.9114 28.4051C45.4727 28.5127 45.0336 28.6203 44.5949 28.7279C44.8144 28.8355 45.0336 28.9431 45.2532 29.0507C44.5949 29.5886 43.9367 30.1266 43.2785 30.6646C43.3881 30.7722 43.498 30.8798 43.6076 30.9874C42.6058 31.1032 42.4958 31.3184 43.2785 31.6329C42.4007 32.386 41.5233 33.1394 40.6456 33.8924C40.8651 33.9999 41.0843 34.1077 41.3038 34.2152C40.8651 34.3227 40.426 34.4305 39.9873 34.538C40.2069 34.6455 40.426 34.7533 40.6456 34.8608C39.9873 35.3989 39.3291 35.9366 38.6709 36.4747C38.8904 36.5822 39.1096 36.69 39.3291 36.7975C38.8904 36.905 38.4514 37.0128 38.0126 37.1203C38.2322 37.2278 38.4514 37.3356 38.6709 37.4431C38.0126 37.9811 37.3544 38.5189 36.6962 39.057C36.8058 39.1645 36.9157 39.2723 37.0253 39.3798C36.0235 39.4957 35.9136 39.711 36.6962 40.0253C36.3671 40.1328 36.038 40.2406 35.7089 40.3481C35.8184 40.4556 35.9284 40.5634 36.038 40.6709C35.2925 41.4459 34.5244 42.1993 33.7342 42.9304C33.8438 43.0379 33.9537 43.1457 34.0633 43.2532C33.7342 43.3607 33.4051 43.4685 33.0759 43.576C33.1855 43.6835 33.2955 43.7913 33.4051 43.8988C32.7468 44.4368 32.0886 44.9746 31.4304 45.5127C32.2129 45.8271 32.1032 46.0424 31.1013 46.1583C31.2109 46.2657 31.3207 46.3736 31.4304 46.481C30.7721 47.0191 30.1139 47.5569 29.4557 48.095C29.6751 48.2024 29.8945 48.3103 30.1139 48.4177C29.6751 48.5252 29.2363 48.633 28.7975 48.7405C29.0169 48.848 29.2363 48.9558 29.4557 49.0633C28.8279 49.4084 28.3891 49.8926 28.1392 50.5159C26.1524 50.622 24.1778 50.5146 22.2152 50.1931C22.3881 49.9697 22.6075 49.8083 22.8734 49.7089C22.7637 49.6014 22.654 49.4936 22.5443 49.3861C23.5462 49.2702 23.6559 49.0549 22.8734 48.7405C23.7511 47.9875 24.6287 47.2341 25.5063 46.481C25.2869 46.3736 25.0675 46.2657 24.8481 46.1583C25.2869 46.0508 25.7257 45.943 26.1645 45.8355C25.9451 45.728 25.7257 45.6202 25.5063 45.5127C26.1645 44.9746 26.8228 44.4368 27.481 43.8988C27.2616 43.7913 27.0422 43.6835 26.8228 43.576C27.2616 43.4685 27.7004 43.3607 28.1392 43.2532C27.9198 43.1457 27.7004 43.0379 27.481 42.9304C28.1392 42.3923 28.7975 41.8546 29.4557 41.3165C29.2363 41.209 29.0169 41.1012 28.7975 40.9937C29.2363 40.8862 29.6751 40.7784 30.1139 40.6709C29.8945 40.5634 29.6751 40.4556 29.4557 40.3481C30.1785 39.7997 30.8367 39.2077 31.4304 38.5728C35.8576 39.1006 38.4905 37.2713 39.3291 33.0855C39.6013 31.4228 39.7658 29.7013 39.8228 27.9209C40.2069 27.3292 40.7005 26.845 41.3038 26.4684C41.0843 26.3608 40.8651 26.2532 40.6456 26.1456C41.0843 26.038 41.5233 25.9304 41.962 25.8228C41.7425 25.7152 41.5233 25.6076 41.3038 25.5C41.962 24.962 42.6202 24.4241 43.2785 23.8861C43.059 23.7785 42.8398 23.6709 42.6202 23.5633C43.059 23.4557 43.498 23.3481 43.9367 23.2405C43.7172 23.1329 43.498 23.0253 43.2785 22.9177C43.9367 22.3798 44.5949 21.8418 45.2532 21.3038C45.0336 21.1962 44.8144 21.0886 44.5949 20.981C45.0336 20.8735 45.4727 20.7658 45.9114 20.6583C45.6919 20.5507 45.4727 20.4431 45.2532 20.3355C46.1309 19.5823 47.0083 18.8291 47.8861 18.076C47.6665 17.9684 47.4474 17.8608 47.2278 17.7532C48.0941 16.8441 49.0814 16.1447 50.1899 15.6551Z" fill="#1173BC"/>
<path opacity="0.981" fill-rule="evenodd" clip-rule="evenodd" d="M32.7468 18.5601C30.9503 18.4321 29.1951 18.5935 27.481 19.0443C26.9325 19.7975 26.2743 20.443 25.5063 20.981C26.2888 21.2956 26.1791 21.5107 25.1772 21.6266C25.2869 21.7342 25.3966 21.8418 25.5063 21.9494C24.1816 22.9385 23.0845 23.9068 22.2152 24.8544C22.4346 24.962 22.654 25.0696 22.8734 25.1772C22.1108 25.6032 21.4526 26.1412 20.8987 26.7911C21.1182 26.8987 21.3376 27.0063 21.557 27.1139C21.1182 27.2215 20.6793 27.3291 20.2405 27.4367C20.4599 27.5443 20.6793 27.6519 20.8987 27.7595C20.1444 28.1759 19.4862 28.7138 18.9241 29.3734C19.1435 29.481 19.3629 29.5886 19.5823 29.6962C19.1435 29.8038 18.7046 29.9114 18.2658 30.019C18.4853 30.1266 18.7046 30.2342 18.9241 30.3418C18.5322 30.5671 18.2031 30.8361 17.9367 31.1487C17.882 28.2417 17.9368 25.3366 18.1013 22.4336C18.849 20.3012 20.33 18.9562 22.5443 18.3987C26.0027 18.1324 29.4036 18.1862 32.7468 18.5601Z" fill="#1D8FC6"/>
<path opacity="0.997" fill-rule="evenodd" clip-rule="evenodd" d="M32.7468 18.5601C32.7468 19.3133 32.7468 20.0665 32.7468 20.8196C32.2948 20.769 31.856 20.8228 31.4304 20.981C31.6498 21.0886 31.8692 21.1962 32.0886 21.3038C31.4304 21.8418 30.7722 22.3797 30.1139 22.9177C30.2236 23.0253 30.3333 23.1329 30.443 23.2405C29.4411 23.3564 29.3314 23.5715 30.1139 23.8861C29.1126 24.814 27.9058 25.2444 26.4937 25.1772C27.2226 25.2322 27.8808 25.4474 28.4684 25.8228C28.1392 25.9304 27.8101 26.038 27.481 26.1456C27.7441 26.8646 27.415 27.295 26.4937 27.4367C26.6034 27.5443 26.7131 27.6519 26.8228 27.7595C26.005 28.264 25.4565 28.802 25.1772 29.3734C25.2869 29.481 25.3966 29.5886 25.5063 29.6962C24.5438 30.015 23.5565 30.2302 22.5443 30.3418C23.1221 30.407 23.6706 30.5684 24.1899 30.8259C24.017 31.0494 23.7976 31.2108 23.5316 31.3101C20.7888 31.4781 20.6791 31.6933 23.2025 31.9557C22.5443 32.0633 21.8861 32.1709 21.2278 32.2785C23.5074 32.7107 25.8112 32.8721 28.1392 32.7627C24.7977 33.0835 21.3968 33.1913 17.9367 33.0854C17.9367 32.4399 17.9367 31.7943 17.9367 31.1487C18.2031 30.8361 18.5322 30.567 18.924 30.3418C18.7046 30.2342 18.4852 30.1266 18.2658 30.019C18.7046 29.9114 19.1435 29.8038 19.5823 29.6962C19.3629 29.5886 19.1435 29.481 18.924 29.3734C19.4862 28.7138 20.1444 28.1759 20.8987 27.7595C20.6793 27.6519 20.4599 27.5443 20.2405 27.4367C20.6793 27.3291 21.1182 27.2215 21.557 27.1139C21.3375 27.0063 21.1182 26.8987 20.8987 26.7911C21.4526 26.1412 22.1108 25.6032 22.8734 25.1772C22.654 25.0696 22.4346 24.962 22.2152 24.8544C23.0845 23.9068 24.1815 22.9384 25.5063 21.9494C25.3966 21.8418 25.2869 21.7342 25.1772 21.6266C26.1791 21.5107 26.2888 21.2956 25.5063 20.981C26.2742 20.443 26.9325 19.7975 27.481 19.0443C29.1951 18.5935 30.9503 18.4321 32.7468 18.5601Z" fill="#1487C3"/>
<path opacity="0.994" fill-rule="evenodd" clip-rule="evenodd" d="M51.8355 20.8196C51.8355 23.4019 51.8355 25.9842 51.8355 28.5665C51.3645 28.7543 50.9258 29.0233 50.519 29.3734C50.6286 29.481 50.7385 29.5886 50.8481 29.6962C49.9269 29.838 49.5978 30.2683 49.8608 30.9874C49.5317 31.0949 49.2025 31.2026 48.8734 31.3101C48.983 31.4177 49.0929 31.5253 49.2025 31.6329C48.7638 31.9557 48.3248 32.2785 47.8861 32.6013C47.9957 32.7088 48.1056 32.8166 48.2152 32.9241C47.8861 33.0316 47.557 33.1394 47.2279 33.2469C47.6034 33.486 47.6034 33.7552 47.2279 34.0538C46.619 34.7052 45.9608 35.2969 45.2532 35.8291C45.2532 36.1519 45.2532 36.4747 45.2532 36.7975C44.3754 37.4431 43.6076 38.1961 42.9494 39.057C43.059 39.1645 43.1689 39.2723 43.2785 39.3798C42.8398 39.4873 42.4007 39.5951 41.962 39.7026C42.1816 39.81 42.4007 39.9179 42.6203 40.0253C41.962 40.5634 41.3038 41.1012 40.6456 41.6393C40.8651 41.7467 41.0843 41.8546 41.3038 41.962C40.8651 42.0695 40.4261 42.1773 39.9874 42.2848C40.2069 42.3923 40.4261 42.5001 40.6456 42.6076C39.9874 43.1457 39.3291 43.6835 38.6709 44.2215C38.8904 44.329 39.1096 44.4368 39.3291 44.5443C38.8904 44.6518 38.4514 44.7596 38.0127 44.8671C38.2322 44.9746 38.4514 45.0824 38.6709 45.1899C38.0127 45.728 37.3544 46.2657 36.6962 46.8038C36.8058 46.9113 36.9157 47.0191 37.0253 47.1266C36.0235 47.2425 35.9136 47.4578 36.6962 47.7722C36.3671 47.8797 36.038 47.9875 35.7089 48.095C35.8185 48.2024 35.9284 48.3103 36.038 48.4177C35.129 49.0414 34.4707 49.7408 34.0633 50.5158C32.0886 50.5158 30.1139 50.5158 28.1393 50.5158C28.3891 49.8925 28.828 49.4084 29.4557 49.0633C29.2363 48.9558 29.0169 48.848 28.7975 48.7405C29.2363 48.633 29.6751 48.5252 30.1139 48.4177C29.8945 48.3103 29.6751 48.2024 29.4557 48.095C30.1139 47.5569 30.7722 47.0191 31.4304 46.481C31.3207 46.3735 31.211 46.2657 31.1013 46.1582C32.1032 46.0424 32.2129 45.8271 31.4304 45.5127C32.0886 44.9746 32.7468 44.4368 33.4051 43.8988C33.2955 43.7913 33.1856 43.6835 33.076 43.576C33.4051 43.4685 33.7342 43.3607 34.0633 43.2532C33.9537 43.1457 33.8438 43.0379 33.7342 42.9304C34.5244 42.1993 35.2925 41.4459 36.038 40.6709C35.9284 40.5634 35.8185 40.4556 35.7089 40.3481C36.038 40.2406 36.3671 40.1328 36.6962 40.0253C35.9136 39.7109 36.0235 39.4956 37.0253 39.3798C36.9157 39.2723 36.8058 39.1645 36.6962 39.057C37.3544 38.5189 38.0127 37.9811 38.6709 37.4431C38.4514 37.3356 38.2322 37.2278 38.0127 37.1203C38.4514 37.0128 38.8904 36.905 39.3291 36.7975C39.1096 36.69 38.8904 36.5822 38.6709 36.4747C39.3291 35.9366 39.9874 35.3989 40.6456 34.8608C40.4261 34.7533 40.2069 34.6455 39.9874 34.538C40.4261 34.4305 40.8651 34.3227 41.3038 34.2152C41.0843 34.1077 40.8651 33.9999 40.6456 33.8924C41.5233 33.1394 42.4007 32.386 43.2785 31.6329C42.4959 31.3184 42.6058 31.1032 43.6076 30.9874C43.498 30.8798 43.3881 30.7722 43.2785 30.6646C43.9367 30.1266 44.5949 29.5886 45.2532 29.0507C45.0337 28.9431 44.8145 28.8355 44.5949 28.7279C45.0337 28.6203 45.4727 28.5127 45.9114 28.4051C45.6919 28.2975 45.4727 28.1899 45.2532 28.0823C45.9114 27.5443 46.5696 27.0064 47.2279 26.4684C47.1183 26.3608 47.0083 26.2532 46.8987 26.1456C47.9006 26.0297 48.0105 25.8146 47.2279 25.5C47.8861 24.962 48.5443 24.4241 49.2025 23.8861C49.0929 23.7785 48.983 23.6709 48.8734 23.5633C49.2025 23.4557 49.5317 23.3481 49.8608 23.2405C49.5978 22.5215 49.9269 22.0911 50.8481 21.9494C50.7385 21.8418 50.6286 21.7342 50.519 21.6266C50.9258 21.2764 51.3645 21.0075 51.8355 20.8196Z" fill="#0E6DB9"/>
<path opacity="0.964" fill-rule="evenodd" clip-rule="evenodd" d="M32.7468 20.8197C32.8016 23.6192 32.7468 26.4166 32.5823 29.2121C31.8791 31.3561 30.3981 32.5396 28.1392 32.7627C25.8112 32.8721 23.5074 32.7107 21.2278 32.2785C21.8861 32.1709 22.5443 32.0633 23.2025 31.9557C20.6791 31.6934 20.7888 31.4782 23.5316 31.3102C23.7976 31.2109 24.017 31.0495 24.1899 30.826C23.6706 30.5685 23.1221 30.4071 22.5443 30.3418C23.5565 30.2302 24.5438 30.015 25.5063 29.6962C25.3966 29.5886 25.2869 29.481 25.1772 29.3734C25.4565 28.8021 26.005 28.2641 26.8228 27.7595C26.7131 27.6519 26.6034 27.5443 26.4937 27.4367C27.415 27.295 27.7441 26.8646 27.481 26.1456C27.8101 26.038 28.1392 25.9304 28.4684 25.8228C27.8808 25.4475 27.2226 25.2323 26.4937 25.1772C27.9058 25.2444 29.1126 24.814 30.1139 23.8861C29.3314 23.5716 29.4411 23.3564 30.443 23.2405C30.3333 23.133 30.2236 23.0253 30.1139 22.9178C30.7721 22.3798 31.4304 21.8418 32.0886 21.3038C31.8692 21.1962 31.6498 21.0886 31.4304 20.981C31.856 20.8229 32.2948 20.7691 32.7468 20.8197Z" fill="#1581C1"/>
<path opacity="0.995" fill-rule="evenodd" clip-rule="evenodd" d="M12.0127 31.1488C11.5283 31.6763 10.9798 32.1605 10.3671 32.6013C10.4768 32.7088 10.5865 32.8166 10.6962 32.9241C9.6943 33.0399 9.5846 33.2552 10.3671 33.5696C9.70888 34.1077 9.05065 34.6455 8.39242 35.1836C8.50212 35.291 8.61184 35.3989 8.72154 35.5063C8.39242 35.6138 8.06331 35.7216 7.73419 35.8291C8.10955 36.0683 8.10955 36.3375 7.73419 36.6361C7.33955 37.2587 6.68133 37.8507 5.75951 38.4114C5.75951 38.7342 5.75951 39.057 5.75951 39.3798C5.4304 39.4873 5.10128 39.5951 4.77217 39.7025C5.01979 39.9191 5.12952 40.188 5.10128 40.5095C3.67513 39.3259 2.35867 38.0347 1.15192 36.6361C1.74561 36.0012 2.40384 35.4092 3.1266 34.8608C2.90719 34.7533 2.68778 34.6455 2.46837 34.538C2.90719 34.4305 3.34602 34.3227 3.78483 34.2152C3.40947 33.976 3.40947 33.7068 3.78483 33.4082C4.17947 32.7856 4.8377 32.1937 5.75951 31.6329C5.54009 31.5253 5.3207 31.4177 5.10128 31.3101C5.54009 31.2026 5.97893 31.0949 6.41774 30.9874C6.19832 30.8798 5.97893 30.7722 5.75951 30.6646C6.63716 29.9114 7.51477 29.1582 8.39242 28.4051C8.173 28.2975 7.95361 28.1899 7.73419 28.0823C9.07602 27.2565 9.95367 26.1268 10.3671 24.6931C10.7133 24.7413 11.0424 24.6875 11.3544 24.5317C11.2448 24.4241 11.135 24.3165 11.0253 24.2089C11.4093 24.0475 11.6836 23.7785 11.8481 23.4019C12.0126 25.982 12.0674 28.5642 12.0127 31.1488Z" fill="#0C92C7"/>
<path opacity="0.991" fill-rule="evenodd" clip-rule="evenodd" d="M51.8354 28.5665C51.8354 31.5791 51.8354 34.5919 51.8354 37.6044C51.143 38.0108 50.4848 38.495 49.8608 39.057C49.9704 39.1645 50.0803 39.2723 50.1899 39.3798C49.1881 39.4956 49.0781 39.7109 49.8608 40.0253C49.5316 40.1328 49.2025 40.2406 48.8734 40.3481C48.983 40.4556 49.0929 40.5634 49.2025 40.6709C48.4571 41.4459 47.6889 42.1993 46.8987 42.9304C47.0083 43.0379 47.1183 43.1457 47.2279 43.2532C46.8987 43.3607 46.5696 43.4685 46.2405 43.576C46.3501 43.6834 46.46 43.7913 46.5696 43.8987C45.9114 44.4368 45.2532 44.9746 44.5949 45.5127C45.3776 45.8271 45.2676 46.0424 44.2658 46.1582C44.3754 46.2657 44.4853 46.3735 44.5949 46.481C43.9367 47.0191 43.2785 47.5569 42.6203 48.0949C42.8398 48.2024 43.059 48.3102 43.2785 48.4177C42.8398 48.5252 42.4007 48.633 41.962 48.7405C42.1815 48.848 42.4007 48.9558 42.6203 49.0633C41.9926 49.4084 41.5536 49.8925 41.3038 50.5158C38.8904 50.5158 36.4767 50.5158 34.0633 50.5158C34.4707 49.7408 35.129 49.0414 36.038 48.4177C35.9284 48.3102 35.8185 48.2024 35.7089 48.0949C36.038 47.9875 36.3671 47.8797 36.6962 47.7722C35.9136 47.4578 36.0235 47.2425 37.0253 47.1266C36.9157 47.0191 36.8058 46.9113 36.6962 46.8038C37.3544 46.2657 38.0127 45.728 38.6709 45.1899C38.4514 45.0824 38.2322 44.9746 38.0127 44.8671C38.4514 44.7596 38.8904 44.6518 39.3291 44.5443C39.1096 44.4368 38.8904 44.329 38.6709 44.2215C39.3291 43.6834 39.9873 43.1457 40.6456 42.6076C40.4261 42.5001 40.2069 42.3923 39.9873 42.2848C40.4261 42.1773 40.8651 42.0695 41.3038 41.962C41.0843 41.8545 40.8651 41.7467 40.6456 41.6393C41.3038 41.1012 41.962 40.5634 42.6203 40.0253C42.4007 39.9178 42.1815 39.81 41.962 39.7025C42.4007 39.5951 42.8398 39.4872 43.2785 39.3798C43.1689 39.2723 43.059 39.1645 42.9494 39.057C43.6076 38.1961 44.3754 37.443 45.2532 36.7975C45.2532 36.4747 45.2532 36.1519 45.2532 35.8291C45.9608 35.2969 46.619 34.7052 47.2279 34.0538C47.6034 33.7552 47.6034 33.486 47.2279 33.2468C47.557 33.1394 47.8861 33.0315 48.2152 32.9241C48.1056 32.8166 47.9957 32.7088 47.8861 32.6013C48.3248 32.2785 48.7638 31.9557 49.2025 31.6329C49.0929 31.5253 48.983 31.4177 48.8734 31.3101C49.2025 31.2026 49.5316 31.0949 49.8608 30.9874C49.5978 30.2683 49.9269 29.8379 50.8481 29.6962C50.7385 29.5886 50.6286 29.481 50.519 29.3734C50.9258 29.0233 51.3645 28.7543 51.8354 28.5665Z" fill="#0E67B7"/>
<path opacity="0.994" fill-rule="evenodd" clip-rule="evenodd" d="M12.0127 31.1487C12.0127 36.5286 12.0127 41.9081 12.0127 47.288C9.58133 45.1185 7.27754 42.8591 5.10127 40.5095C5.12951 40.188 5.01978 39.9191 4.77216 39.7025C5.10127 39.5951 5.43038 39.4872 5.7595 39.3798C5.7595 39.057 5.7595 38.7342 5.7595 38.4114C6.68131 37.8507 7.33954 37.2587 7.73418 36.6361C8.10954 36.3375 8.10954 36.0683 7.73418 35.8291C8.0633 35.7216 8.39241 35.6138 8.72152 35.5063C8.61183 35.3989 8.5021 35.291 8.39241 35.1836C9.05064 34.6455 9.70886 34.1077 10.3671 33.5696C9.58459 33.2552 9.69428 33.0399 10.6962 32.9241C10.5865 32.8166 10.4768 32.7088 10.3671 32.6013C10.9798 32.1604 11.5283 31.6763 12.0127 31.1487Z" fill="#108CC5"/>
<path opacity="0.972" fill-rule="evenodd" clip-rule="evenodd" d="M25.5063 38.5728C24.5624 39.5608 23.6848 40.3678 22.8734 40.9936C23.0928 41.1011 23.3122 41.2089 23.5316 41.3164C22.8734 41.8545 22.2152 42.3923 21.557 42.9303C21.6667 43.0378 21.7764 43.1456 21.8861 43.2531C21.557 43.3606 21.2279 43.4684 20.8987 43.5759C21.2741 43.8151 21.2741 44.0843 20.8987 44.3829C20.5041 45.0055 19.8459 45.5975 18.9241 46.1582C19.0337 46.2657 19.1435 46.3735 19.2532 46.481C18.2512 46.5969 18.1416 46.8122 18.9241 47.1266C18.1819 47.6375 17.4139 48.3906 16.6203 49.386C16.8679 49.6026 16.9776 49.8715 16.9494 50.193C16.3825 49.6272 15.8888 48.9816 15.4684 48.2563C15.3039 45.0304 15.249 41.8025 15.3038 38.5728C18.7046 38.5728 22.1055 38.5728 25.5063 38.5728Z" fill="#1080C0"/>
<path opacity="0.988" fill-rule="evenodd" clip-rule="evenodd" d="M25.5063 38.5728C27.481 38.5728 29.4557 38.5728 31.4304 38.5728C30.8367 39.2077 30.1784 39.7997 29.4557 40.3481C29.6751 40.4556 29.8945 40.5634 30.1139 40.6709C29.6751 40.7783 29.2363 40.8862 28.7975 40.9936C29.0169 41.1011 29.2363 41.2089 29.4557 41.3164C28.7975 41.8545 28.1392 42.3923 27.481 42.9303C27.7004 43.0378 27.9198 43.1456 28.1392 43.2531C27.7004 43.3606 27.2616 43.4684 26.8228 43.5759C27.0422 43.6834 27.2616 43.7912 27.481 43.8987C26.8228 44.4368 26.1645 44.9745 25.5063 45.5126C25.7257 45.6201 25.9451 45.7279 26.1645 45.8354C25.7257 45.9429 25.2869 46.0507 24.8481 46.1582C25.0675 46.2657 25.2869 46.3735 25.5063 46.481C24.6287 47.234 23.7511 47.9874 22.8734 48.7405C23.6559 49.0549 23.5462 49.2702 22.5443 49.386C22.654 49.4935 22.7637 49.6013 22.8734 49.7088C22.6074 49.8082 22.3881 49.9696 22.2152 50.193C24.1777 50.5145 26.1524 50.622 28.1392 50.5158C30.1139 50.5158 32.0886 50.5158 34.0633 50.5158C36.4767 50.5158 38.8904 50.5158 41.3038 50.5158C43.9367 50.5158 46.5696 50.5158 49.2025 50.5158C49.2025 50.6233 49.2025 50.7311 49.2025 50.8386C38.7805 50.8386 28.3586 50.8386 17.9367 50.8386C17.6765 50.5477 17.3474 50.3324 16.9494 50.193C16.9776 49.8715 16.8679 49.6026 16.6202 49.386C17.4139 48.3906 18.1819 47.6375 18.924 47.1266C18.1415 46.8122 18.2512 46.5969 19.2532 46.481C19.1435 46.3735 19.0337 46.2657 18.924 46.1582C19.8459 45.5975 20.5041 45.0055 20.8987 44.3829C21.2741 44.0843 21.2741 43.8151 20.8987 43.5759C21.2278 43.4684 21.5569 43.3606 21.8861 43.2531C21.7764 43.1456 21.6666 43.0378 21.5569 42.9303C22.2152 42.3923 22.8734 41.8545 23.5316 41.3164C23.3122 41.2089 23.0928 41.1011 22.8734 40.9936C23.6848 40.3678 24.5624 39.5608 25.5063 38.5728Z" fill="#177ABE"/>
<path opacity="0.984" fill-rule="evenodd" clip-rule="evenodd" d="M51.8354 37.6044C51.8354 41.1551 51.8354 44.7057 51.8354 48.2563C51.375 49.46 50.4976 50.2131 49.2025 50.5158C46.5696 50.5158 43.9367 50.5158 41.3038 50.5158C41.5536 49.8925 41.9926 49.4083 42.6203 49.0633C42.4007 48.9558 42.1815 48.848 41.962 48.7405C42.4007 48.633 42.8398 48.5252 43.2785 48.4177C43.059 48.3102 42.8398 48.2024 42.6203 48.0949C43.2785 47.5569 43.9367 47.0191 44.5949 46.481C44.4853 46.3735 44.3754 46.2657 44.2658 46.1582C45.2677 46.0423 45.3776 45.8271 44.5949 45.5127C45.2532 44.9746 45.9114 44.4368 46.5696 43.8987C46.46 43.7912 46.3501 43.6834 46.2405 43.576C46.5696 43.4685 46.8987 43.3607 47.2279 43.2532C47.1183 43.1457 47.0083 43.0379 46.8987 42.9304C47.6889 42.1993 48.4571 41.4459 49.2025 40.6709C49.0929 40.5634 48.983 40.4556 48.8734 40.3481C49.2025 40.2406 49.5316 40.1328 49.8608 40.0253C49.0781 39.7109 49.1881 39.4956 50.1899 39.3797C50.0803 39.2723 49.9704 39.1645 49.8608 39.057C50.4848 38.495 51.143 38.0108 51.8354 37.6044Z" fill="#1260B5"/>
</g>
<defs>
<clipPath id="clip0_91_76">
<rect width="52" height="51" fill="white"/>
</clipPath>
</defs>
</svg>
