<svg width="48" height="49" viewBox="0 0 48 49" fill="none" xmlns="http://www.w3.org/2000/svg">
<path opacity="0.695" fill-rule="evenodd" clip-rule="evenodd" d="M13.2871 0.150932C33.044 -1.30215 41.4519 7.7368 38.5107 27.2678C37.6653 29.3383 36.5359 31.2214 35.1224 32.9172C40.3088 35.9707 44.3245 40.1135 47.1695 45.3457C46.6852 47.963 45.1793 48.8417 42.6519 47.9821C37.9115 44.7501 34.2723 40.6073 31.7342 35.5535C30.1685 36.7763 28.5371 37.9061 26.8401 38.9431C5.73703 41.435 -2.9218 32.2704 0.863613 11.4496C3.73488 6.12388 7.87606 2.35764 13.2871 0.150932ZM16.2989 5.42366C24.3945 4.51253 30.0416 7.77658 33.2401 15.2159C35.0307 24.3186 31.6425 30.4702 23.0754 33.6704C9.81834 34.7182 3.92025 28.5666 5.38126 15.2159C7.76244 10.4434 11.4016 7.17933 16.2989 5.42366Z" fill="#FFFEFE"/>
</svg>
